<?xml version="1.0" encoding="UTF-8" standalone="no"?>
<!-- Created with Inkscape (http://www.inkscape.org/) -->
<svg
   xmlns:svg="http://www.w3.org/2000/svg"
   xmlns="http://www.w3.org/2000/svg"
   version="1.0"
   width="743.54999"
   height="290.77499"
   id="Logo_MAOAM"
   xml:space="preserve"><defs
     id="defs5" /><path
     d="M 719.00194,13.835475 L 719.00194,276.86453 C 654.96009,263.85603 597.49397,254.13539 546.7465,247.70262 C 484.8489,239.84033 426.81097,235.83771 372.6327,235.83771 C 318.45444,235.83771 260.1306,239.84033 197.66119,247.70262 C 147.34259,254.13539 89.590561,263.85603 24.548049,276.86453 L 24.548049,13.835475 C 96.309239,27.55872 152.48881,37.279365 192.94383,42.85443 C 255.41323,51.574425 312.16461,56.00589 363.19797,56.00589 C 418.37689,56.00589 477.98728,51.860325 542.17209,43.712145 C 593.20545,37.136415 652.24402,27.12987 719.00194,13.835475 z"
     id="Hintergrund"
     style="fill:#ffffff;fill-opacity:1;fill-rule:evenodd;stroke:none" /><path
     d="M 719.00194,13.835475 L 719.00194,276.86453 C 654.96009,263.85603 597.49397,254.13539 546.7465,247.70262 C 484.8489,239.84033 426.81097,235.83771 372.6327,235.83771 C 318.45444,235.83771 260.1306,239.84033 197.66119,247.70262 C 147.34259,254.13539 89.590561,263.85603 24.548049,276.86453 L 24.548049,13.835475 C 96.309239,27.55872 152.48881,37.279365 192.94383,42.85443 C 255.41323,51.574425 312.16461,56.00589 363.19797,56.00589 C 418.37689,56.00589 477.98728,51.860325 542.17209,43.712145 C 593.20545,37.136415 652.24402,27.12987 719.00194,13.835475"
     id="Rahmen"
     style="fill:none;stroke:#ffffff;stroke-width:14.15210724;stroke-linecap:round;stroke-linejoin:round;stroke-miterlimit:10;stroke-opacity:1;stroke-dasharray:none" /><path
     d="M 708.85247,22.984305 L 708.70951,267.85865 C 646.66896,255.13605 590.91823,245.70131 541.60029,239.41148 C 481.56105,231.69215 425.23851,227.83248 372.6327,227.83248 C 319.88394,227.83248 263.27551,231.69215 202.66446,239.55443 C 153.63242,245.70131 97.595793,255.13605 34.554589,267.85865 L 34.840489,22.984305 C 104.74332,36.278715 159.35044,45.713445 198.37595,51.145575 C 258.987,59.579655 311.95018,63.86817 363.48387,63.86817 C 415.01755,63.86817 474.84237,59.865555 537.02586,51.860325 C 586.62972,45.427545 643.80995,35.849865 708.85247,22.984305 z"
     id="Blau"
     style="fill:#034ea3;fill-opacity:1;fill-rule:evenodd;stroke:none" /><path
     d="M 418.80575,103.46549 C 430.95654,115.61628 436.96047,130.19724 436.96047,147.35132 C 436.96047,164.64833 430.95654,179.22929 418.80575,191.38008 C 406.65494,203.53089 392.07398,209.53481 374.77697,209.53481 C 357.62289,209.53481 343.04193,203.53089 330.89114,191.38008 C 318.74034,179.22929 312.73641,164.64833 312.73641,147.35132 C 312.73641,130.19724 318.74034,115.61628 330.89114,103.46549 C 343.04193,91.314675 357.62289,85.31076 374.77697,85.31076 C 392.07398,85.31076 406.65494,91.314675 418.80575,103.46549 z M 396.64841,125.62283 C 402.50937,131.62674 405.51133,138.91722 405.51133,147.35132 C 405.51133,155.7854 402.50937,163.07588 396.64841,169.07979 C 390.50152,175.08372 383.21104,178.08569 374.77697,178.08569 C 366.34288,178.08569 359.19535,175.08372 353.04847,169.07979 C 347.18749,163.07588 344.18554,155.7854 344.18554,147.35132 C 344.18554,138.91722 347.18749,131.62674 353.04847,125.62283 C 359.19535,119.47595 366.34288,116.47398 374.77697,116.61693 C 383.21104,116.47398 390.50152,119.47595 396.64841,125.62283 z M 466.26532,99.31992 L 466.98009,99.60582 L 467.26599,96.460905 C 467.98074,92.88714 469.98204,89.599275 473.41285,86.88321 C 477.70139,83.452395 482.8476,81.736995 488.99448,81.736995 C 494.9984,81.736995 500.14463,83.452395 504.57609,86.88321 L 507.00624,89.313375 C 509.00755,91.60059 510.29411,94.03074 510.8659,96.746805 L 511.15182,96.746805 L 536.31111,196.66926 C 537.31178,200.52893 536.73996,204.10269 534.30981,207.53351 C 532.0226,210.82137 528.87768,212.96562 524.73212,213.82332 C 520.58655,214.82399 516.58393,214.25219 512.86722,212.10792 C 509.29345,209.96366 506.86329,207.10466 505.86264,203.24499 L 501.71707,186.37682 L 468.83844,186.37682 L 463.40632,202.10138 C 461.97681,205.81809 459.40371,208.53416 455.54405,210.39252 C 451.68438,212.10792 447.8247,212.39382 443.82209,211.10727 C 439.67652,209.82071 436.67455,207.53351 434.5303,203.95974 C 432.52899,200.38598 432.24309,196.66926 433.52965,192.95255 L 466.26532,99.31992 z M 549.03372,92.60124 L 549.03372,204.96039 C 548.89077,209.24891 550.74912,212.96562 554.46583,215.96759 C 558.0396,218.96955 562.32812,220.542 567.33139,220.542 C 572.47761,220.542 576.90908,218.96955 580.48284,215.96759 C 584.0566,212.96562 585.77202,209.24891 585.91497,204.96039 L 585.91497,137.48772 L 605.78509,183.66075 L 630.0867,135.34346 L 630.0867,215.25284 C 629.94373,219.9702 631.8021,224.11577 635.66176,227.54658 C 639.37848,230.9774 643.80995,232.69281 648.95617,232.69281 C 654.24534,232.69281 658.67681,230.9774 662.25057,227.54658 C 665.96728,224.11577 667.82565,219.9702 667.82565,215.25284 L 667.82565,89.742225 C 667.82565,84.73896 665.96728,80.593395 662.25057,77.30553 C 658.67681,73.874715 654.24534,72.1593 648.95617,72.1593 C 643.66699,72.1593 639.23553,73.874715 635.66176,77.30553 L 633.2316,79.73568 L 631.5162,82.594695 L 604.35559,126.90938 L 584.77135,86.31141 L 583.62775,84.88191 L 580.48284,81.451095 C 576.90908,78.44913 572.47761,76.87668 567.33139,76.87668 C 562.32812,76.87668 558.0396,78.44913 554.46583,81.451095 C 550.74912,84.45306 548.89077,88.169775 549.03372,92.60124 z M 496.28496,165.36308 L 487.85086,131.91264 L 476.12892,165.36308 L 496.28496,165.36308 z M 83.729588,77.30553 C 87.303351,73.874715 91.734819,72.1593 97.023991,72.1593 C 102.31316,72.1593 106.74463,73.874715 110.46135,77.30553 L 112.74855,79.73568 L 114.32101,82.308795 L 141.76752,126.90938 L 161.35174,86.31141 L 162.63831,84.88191 C 163.35306,83.595345 164.49666,82.451745 165.78323,81.451095 C 169.35699,78.44913 173.6455,76.87668 178.79172,76.87668 C 183.79498,76.87668 188.08352,78.44913 191.65728,81.451095 C 195.23103,84.45306 196.94645,88.169775 196.94645,92.60124 L 196.94645,204.96039 C 196.94645,209.24891 195.23103,212.96562 191.65728,215.96759 C 188.08352,218.96955 183.79498,220.542 178.79172,220.542 C 173.6455,220.542 169.35699,218.96955 165.78323,215.96759 C 162.06651,212.96562 160.20815,209.24891 160.20815,204.96039 L 160.20815,137.05887 L 140.19507,183.66075 L 115.89347,135.05756 L 115.89347,215.25284 C 115.89347,219.9702 114.03511,224.11577 110.46135,227.54658 C 106.74463,230.9774 102.31316,232.69281 97.023991,232.69281 C 91.87777,232.69281 87.446303,230.9774 83.729588,227.54658 C 80.012872,224.11577 78.154515,219.9702 78.154515,215.25284 L 78.154515,89.742225 C 78.154515,84.73896 80.012872,80.593395 83.729588,77.30553 z M 275.99811,90.742875 C 274.99746,89.456325 273.85386,88.169775 272.42434,86.88321 C 267.99288,83.452395 262.84666,81.736995 256.84274,81.736995 C 250.69585,81.736995 245.54964,83.452395 241.11818,86.88321 C 237.97326,89.599275 235.97195,92.60124 235.11424,96.032055 L 235.11424,96.460905 L 234.82835,99.60582 L 234.25654,99.46287 L 209.66904,196.66926 C 208.66839,200.52893 209.38314,204.10269 211.52741,207.53351 C 213.8146,210.82137 217.10247,212.96562 221.24804,213.82332 C 225.39361,214.82399 229.39623,214.25219 233.11294,212.10792 C 236.82966,210.10661 239.11686,207.10466 240.11753,203.24499 L 244.40604,186.37682 L 277.28467,186.37682 L 282.71679,202.10138 C 284.00334,205.81809 286.43351,208.53416 290.29317,210.39252 C 294.15283,212.10792 298.15545,212.39382 302.30101,211.10727 C 306.44658,209.82071 309.59149,207.53351 311.59281,203.95974 C 313.45116,200.38598 313.88001,196.66926 312.59346,192.95255 L 278.28533,94.88844 L 278.14238,94.88844 C 277.71353,93.45894 276.99876,92.02944 275.99811,90.742875 z M 269.99419,165.36308 L 258.27224,131.76969 L 249.6952,165.36308 L 269.99419,165.36308"
     id="MAOAM"
     style="fill:#ffffff;fill-opacity:1;fill-rule:evenodd;stroke:none" /></svg>